<?xml version="1.0" encoding="UTF-8"?>
<svg id="b" data-name="Layer 2" xmlns="http://www.w3.org/2000/svg" width="114.326mm" height="21.893mm" xmlns:xlink="http://www.w3.org/1999/xlink" viewBox="0 0 324.074 62.059">
  <defs>
    <radialGradient id="d" cx="23.262" cy="24.94" fx="11.782" fy="7.605" r="44.302" gradientUnits="userSpaceOnUse">
      <stop offset=".066" stop-color="#f9ad87"/>
      <stop offset=".389" stop-color="#f499be"/>
      <stop offset=".785" stop-color="#9563a1"/>
    </radialGradient>
  </defs>
  <g id="c" data-name="Layer 1">
    <g>
      <path d="m.019,30.585C.019,25.311-.004,20.037.025,14.763.059,8.367,3.371.9,11.963.9c5.53,0,10.023,3.28,11.701,8.967.917,3.109.692,7.269.728,10.426,0,2.406.091,3.623,2.624,3.623,2.093.01,5.187-.03,7.277.054,6.365.253,12.232,5.103,12.232,12.024,0,7.867-5.815,12.71-14.601,12.884-10.125.2-20.258.034-30.387.064-1.141.003-1.544-.382-1.536-1.531.041-5.609.018-11.217.019-16.826Z" fill="url(#d)"/>
      <g>
        <path d="m123.234,49.416c-16.232.17-25.69-12.533-24.971-26.101C98.988,9.658,108.845-.474,123.467.017c14.834.498,24.056,11.982,23.794,25.12-.31,15.553-12.379,24.602-24.026,24.28Zm-14.723-24.432c.274,1.961.34,3.98.862,5.872,1.618,5.865,6.039,9.432,12.308,9.817,6.269.385,11.974-2.602,14.199-9.189,1.362-4.032,1.371-8.171.359-12.281-1.468-5.956-6.305-10.625-13.749-10.426-5.906.158-10.066,2.785-12.448,8.171-1.124,2.541-1.435,5.246-1.53,8.036Z" fill="#fff"/>
        <path d="m204.338,34.017c-3.591,0-7.183.047-10.773-.026-1.237-.025-1.551.331-1.314,1.534.604,3.069,3.02,5.978,5.706,6.359,3.419.485,6.61.112,8.715-3.201.277-.436.96-.843,1.47-.863,2.334-.091,4.673-.009,7.01-.05,1.169-.021,1.408.522,1.079,1.498-1.843,5.461-5.754,8.625-11.268,9.779-3.605.754-7.265.642-10.786-.581-6.065-2.106-9.593-6.58-11.016-12.653-1.314-5.605-.588-10.993,3.042-15.683,3.082-3.982,7.151-6.221,12.245-6.456,3.857-.178,7.593.052,10.95,2.355,3.545,2.432,5.447,5.916,6.466,9.91.556,2.177.673,4.466.974,6.707.141,1.048-.359,1.376-1.382,1.364-3.705-.044-7.41-.017-11.115-.017v.026Zm-4.528-6.501v.007c2.161,0,4.322-.022,6.482.011.897.014,1.234-.23.998-1.197-.636-2.612-1.972-4.619-4.7-5.269-1.134-.271-2.368-.214-3.552-.172-3.083.111-5.694,2.405-6.399,5.412-.239,1.021.035,1.261,1.032,1.228,2.045-.067,4.093-.02,6.14-.02Z" fill="#fff"/>
        <path d="m289.518,36.687c0,3.421-.055,6.843.027,10.262.033,1.383-.468,1.82-1.795,1.747-1.592-.088-3.194-.076-4.787-.006-1.379.06-2.211-.407-2.268-1.873-.034-.876-.213-1.181-1.059-.489-4.821,3.944-11.927,4.142-16.925.529-2.404-1.738-3.362-4.246-3.617-7.044-.658-7.226,4.758-10.379,9.952-11.108,2.529-.355,5.076-.586,7.613-.886,2.253-.266,3.592-1.55,3.571-3.396-.022-1.937-1.48-3.358-3.69-3.516-.964-.069-1.947-.097-2.905.007-2.006.217-3.652,1.119-4.256,3.146-.364,1.221-1.02,1.456-2.128,1.36-2.096-.182-4.196-.327-6.298-.407-1.291-.049-1.184-.854-.976-1.656.772-2.974,2.387-5.401,4.953-7.116,2.463-1.646,5.186-2.498,8.176-2.546,3.312-.053,6.6-.103,9.665,1.469,3.725,1.91,5.98,4.925,6.347,9.074.366,4.132.395,8.294.572,12.442-.057.002-.115.004-.172.007Zm-16.785,5.697c4.889-.062,8.848-4.872,7.909-8.821-.04-.168-.443-.389-.644-.36-2.065.298-4.141.56-6.177,1.002-1.471.319-3.021.661-4.296,1.404-2.232,1.301-2.188,4.264.041,5.594,1.132.676,2.508.945,3.166,1.181Z" fill="#fff"/>
        <path d="m295.22,14.119c.799,0,1.597,0,2.396,0,2.269,0,2.33-.018,2.972,2.128,2.047,6.844,4.042,13.703,6.067,20.552.094.319.292.607.441.909.18-.398.409-.782.533-1.197,1.412-4.722,2.785-9.457,4.22-14.172.709-2.332,1.541-4.626,2.282-6.949.301-.944.824-1.335,1.863-1.296,2.165.081,4.335.015,6.503.028,1.719.01,1.839.151,1.276,1.739-2.087,5.885-4.17,11.772-6.308,17.64-2.351,6.453-4.66,12.924-7.185,19.309-1.324,3.349-3.145,6.438-6.591,8.202-2.696,1.38-5.539,1.046-8.361.913-.347-.016-.9-.843-.935-1.325-.119-1.646-.019-3.306-.063-4.96-.028-1.069.444-1.358,1.461-1.324,1.957.066,3.891-.06,5.319-1.716.984-1.142,1.437-2.259.874-3.874-3.76-10.768-7.419-21.571-11.111-32.363-.111-.323-.2-.655-.335-.968-.407-.947.043-1.266.916-1.271,1.255-.008,2.51-.002,3.765-.005Z" fill="#fff"/>
        <path d="m62.81,24.634c0-7.353-.007-14.706.005-22.06.003-1.77.034-1.775,1.807-1.78,2.166-.005,4.332-.005,6.498,0,1.778.004,1.791.009,1.792,1.77.006,10.488.005,20.977.006,31.465,0,1.596.053,3.194-.016,4.787-.045,1.048.322,1.361,1.369,1.351,4.389-.039,8.778-.004,13.167.027,3.654.026,5.818.309,5.499,5.668-.027.454-.027.913-.002,1.368.057,1.036-.488,1.443-1.45,1.441-.228,0-.456.004-.684.004-8.664,0-17.329.003-25.993-.002-2.012-.001-2.017-.012-2.018-1.981-.002-7.353,0-14.706,0-22.06h.021Z" fill="#fff"/>
        <path d="m165.767,48.676c-1.368,0-2.737-.022-4.104.008-.852.019-1.274-.275-1.583-1.155-3.704-10.541-7.469-21.061-11.212-31.588-.548-1.541-.375-1.798,1.254-1.815,2.166-.023,4.337.083,6.497-.039,1.34-.076,2.005.48,2.377,1.648,1.513,4.754,3.037,9.505,4.547,14.26.72,2.268,1.406,4.547,2.137,6.811.091.28.365.501.554.75.186-.266.456-.507.546-.802,2.114-6.873,4.21-13.753,6.308-20.631q.61-1.999,2.663-2.002c2.052-.001,4.104-.017,6.156.006,1.558.017,1.735.267,1.219,1.686-3.796,10.451-7.614,20.895-11.376,31.358-.413,1.15-.987,1.632-2.223,1.525-1.245-.108-2.506-.024-3.76-.024v.005Z" fill="#fff"/>
        <path d="m254.604,24.529c0,7.407.004,14.815-.003,22.222-.002,1.841-.082,1.913-1.933,1.922-1.823.009-3.647.006-5.47,0-1.948-.008-2-.058-1.999-2.032.005-9.971.014-19.943.023-29.914.004-4.786.058-9.573-.012-14.358-.02-1.347.49-1.645,1.702-1.597,1.991.08,3.992.099,5.981-.006,1.341-.071,1.754.346,1.742,1.713-.063,7.35-.03,14.701-.029,22.051Z" fill="#fff"/>
        <path d="m220.774,31.205c0-5.13.044-10.261-.03-15.39-.019-1.353.371-1.815,1.733-1.723,1.645.112,3.304.02,4.957.027,1.847.008,1.853.013,1.896,1.924.018.798-.013,1.597.017,2.394.009.25.143.495.219.742.177-.189.4-.353.523-.572,1.338-2.394,3.183-4.184,5.971-4.652,1.331-.223,2.713-.201,4.07-.176.772.014,1.196.499,1.175,1.361-.053,2.165-.039,4.332-.079,6.497-.013.72-.055,1.288-1.166,1.119-6.548-.995-9.081,2.547-9.465,8.003-.372,5.278-.327,10.585-.452,15.879-.048,2.017-.037,2.029-1.978,2.036-1.881.006-3.766-.071-5.642.026-1.357.07-1.796-.422-1.782-1.763.056-5.244.023-10.488.023-15.732h.008Z" fill="#fff"/>
        <path d="m94.377.797c1.139,0,2.279-.043,3.415.012,1.187.058,1.628.753,1.065,1.809-2.379,4.459-4.796,8.897-7.253,13.313-.205.369-.796.7-1.231.732-1.302.096-2.617.068-3.925.025-.998-.033-1.263-.672-1.001-1.537,1.342-4.44,2.724-8.867,4.04-13.314.244-.826.689-1.073,1.475-1.05,1.138.033,2.277.009,3.416.011Z" fill="#fff"/>
      </g>
    </g>
  </g>
</svg>