<?xml version="1.0" encoding="UTF-8"?>
<svg id="b" data-name="Layer 2" xmlns="http://www.w3.org/2000/svg" width="124.044mm" height="12.398mm" xmlns:xlink="http://www.w3.org/1999/xlink" viewBox="0 0 351.62 35.143">
  <defs>
    <radialGradient id="d" cx="16.663" cy="17.22" fx="8.44" fy="4.803" r="31.734" gradientUnits="userSpaceOnUse">
      <stop offset=".066" stop-color="#f9ad87"/>
      <stop offset=".389" stop-color="#f499bd"/>
      <stop offset=".785" stop-color="#9563a1"/>
    </radialGradient>
  </defs>
  <g id="c" data-name="Layer 1">
    <g>
      <path d="m57.102.703h-4.451c-.531,0-.961.43-.961.961v31.814c0,.531.43.961.961.961h18.976c.531,0,.961-.43.961-.961v-4.029c0-.531-.43-.961-.961-.961h-12.603c-.531,0-.961-.43-.961-.961V1.664c0-.531-.43-.961-.961-.961Z" fill="#231f20"/>
      <path d="m109.148,2.202c-2.444-1.468-5.353-2.202-8.727-2.202s-6.283.734-8.728,2.202-4.326,3.522-5.646,6.161-1.98,5.709-1.98,9.208.66,6.567,1.98,9.207c1.319,2.64,3.201,4.693,5.646,6.162,2.444,1.468,5.354,2.202,8.728,2.202s6.282-.734,8.727-2.202c2.444-1.469,4.326-3.522,5.646-6.162,1.319-2.64,1.979-5.708,1.979-9.207s-.66-6.567-1.979-9.208c-1.32-2.639-3.202-4.693-5.646-6.161Zm-.188,21.507c-.711,1.75-1.776,3.101-3.197,4.054-1.422.952-3.202,1.413-5.342,1.382-2.141-.031-3.921-.523-5.342-1.476-1.422-.953-2.487-2.288-3.198-4.007-.711-1.718-1.065-3.748-1.065-6.091s.354-4.389,1.065-6.139c.711-1.749,1.776-3.1,3.198-4.053,1.421-.952,3.201-1.413,5.342-1.383,2.14.032,3.92.523,5.342,1.477,1.421.953,2.486,2.288,3.197,4.006.711,1.719,1.066,3.749,1.066,6.092s-.355,4.389-1.066,6.138Z" fill="#231f20"/>
      <path d="m141.399,25.442l-7.315-24.057c-.123-.405-.497-.682-.92-.682h-4.548c-.646,0-1.108.624-.919,1.242l9.721,31.814c.124.404.497.68.919.68h8.089c.423,0,.796-.276.919-.68l9.721-31.814c.189-.618-.273-1.242-.919-1.242h-4.553c-.422,0-.794.275-.918.677l-7.439,24.065c-.28.905-1.562.902-1.838-.004Z" fill="#231f20"/>
      <path d="m172.229,34.439h20.1c.531,0,.961-.43.961-.961v-4.029c0-.531-.43-.961-.961-.961h-13.728c-.531,0-.961-.43-.961-.961v-6.745c0-.531.43-.961.961-.961h10.916c.531,0,.961-.43.961-.961v-4.029c0-.531-.43-.961-.961-.961h-10.916c-.531,0-.961-.43-.961-.961v-5.293c0-.531.43-.961.961-.961h13.728c.531,0,.961-.43.961-.961V1.664c0-.531-.43-.961-.961-.961h-20.1c-.531,0-.961.43-.961.961v31.814c0,.531.43.961.961.961Z" fill="#231f20"/>
      <path d="m232.884,19.105c1.406-2.007,2.108-4.424,2.108-7.251,0-1.89-.305-3.604-.913-5.143-.609-1.538-1.559-2.814-2.847-3.83-1.289-1.016-2.94-1.679-4.955-1.992-.438-.077-.934-.128-1.488-.151-.554-.023-.995-.035-1.323-.035h-13.283c-.531,0-.961.43-.961.961v31.814c0,.531.43.961.961.961h4.45c.531,0,.961-.43.961-.961v-9.51c0-.531.43-.961.961-.961h5.547c.368,0,.704.211.865.542l5.015,10.349c.161.332.497.542.865.542h5.075c.71,0,1.175-.744.864-1.382l-5.072-10.403c-.192-.394-.021-.853.364-1.063,1.146-.625,2.081-1.453,2.805-2.486Zm-17.29-11.491c0-.531.43-.961.961-.961h6.63c.328,0,.688.016,1.078.047.39.031.749.094,1.077.188.859.234,1.523.629,1.991,1.184.469.555.793,1.171.973,1.851s.27,1.323.27,1.933-.09,1.254-.27,1.933c-.18.68-.504,1.297-.973,1.852-.468.554-1.132.948-1.991,1.183-.328.094-.688.156-1.077.188-.391.031-.75.047-1.078.047h-6.63c-.531,0-.961-.43-.961-.961V7.615Z" fill="#231f20"/>
      <path d="m256.804.703h-4.451c-.531,0-.961.43-.961.961v31.814c0,.531.43.961.961.961h18.976c.531,0,.961-.43.961-.961v-4.029c0-.531-.43-.961-.961-.961h-12.603c-.531,0-.961-.43-.961-.961V1.664c0-.531-.43-.961-.961-.961Z" fill="#231f20"/>
      <path d="m294.338,1.384l-9.72,31.814c-.189.618.273,1.242.919,1.242h4.548c.423,0,.797-.277.92-.682l1.722-5.665c.123-.405.496-.682.92-.682h11.282c.422,0,.794.275.919.678l1.751,5.673c.124.403.497.678.919.678h4.552c.646,0,1.108-.624.919-1.242l-9.721-31.814c-.124-.404-.497-.68-.919-.68h-8.09c-.423,0-.796.276-.919.68Zm.782,18.836l3.204-10.543c.276-.907,1.559-.91,1.838-.004l3.254,10.543c.191.618-.271,1.245-.919,1.245h-6.458c-.645,0-1.107-.623-.92-1.241Z" fill="#231f20"/>
      <path d="m344.593,1.185l-6.199,10.768c-.37.642-1.296.642-1.666,0l-6.199-10.768c-.172-.298-.489-.482-.833-.482h-5.231c-.74,0-1.202.8-.833,1.441l10.568,18.344c.084.146.128.311.128.48v12.51c0,.531.43.961.961.961h4.544c.531,0,.961-.43.961-.961v-12.51c0-.168.044-.334.128-.48l10.568-18.344c.369-.641-.093-1.441-.833-1.441h-5.231c-.344,0-.662.184-.833.482Z" fill="#231f20"/>
    </g>
    <path d="m.013,21.263C.013,17.486-.003,13.708.018,9.93.042,5.348,2.414,0,8.569,0c3.961,0,7.18,2.349,8.381,6.423.657,2.227.496,5.207.522,7.468,0,1.724.065,2.595,1.879,2.595,1.499.007,3.716-.021,5.213.038,4.56.181,8.762,3.655,8.762,8.613,0,5.635-4.165,9.105-10.459,9.229-7.253.143-14.511.024-21.767.046-.817.002-1.106-.274-1.1-1.097.029-4.017.013-8.035.013-12.053Z" fill="url(#d)"/>
  </g>
</svg>